<?xml version="1.0" encoding="UTF-8" standalone="no"?>
<!-- Created with Inkscape (http://www.inkscape.org/) -->

<svg
   xmlns:svg="http://www.w3.org/2000/svg"
   xmlns="http://www.w3.org/2000/svg"
   version="1.1"
   width="392.85715"
   height="757.36261"
   id="svg2">
  <defs
     id="defs4" />
  <g
     transform="translate(-163.57143,-34.285317)"
     id="layer1">
    <path
       d="m 339.8125,180.9375 c -94.85895,0 -171.25,75.3768 -171.25,169 l 0,43.8125 193.0625,0 0,-212.8125 -21.8125,0 z"
       id="rect3637"
       style="fill:#88aa00;fill-opacity:1;stroke:none" />
    <rect
       width="382.85715"
       height="605.71429"
       rx="171.22554"
       ry="168.99495"
       x="168.57143"
       y="180.93361"
       id="rect3621"
       style="fill:none;stroke:#000000;stroke-width:10;stroke-miterlimit:4;stroke-opacity:1;stroke-dasharray:none" />
    <path
       d="m 360,180.90608 0,213.15731"
       id="path3629"
       style="fill:none;stroke:#000000;stroke-width:5;stroke-linecap:butt;stroke-linejoin:miter;stroke-miterlimit:4;stroke-opacity:1;stroke-dasharray:none" />
    <path
       d="m 388.57142,289.50504 a 31.428572,51.42857 0 1 1 -62.85714,0 31.428572,51.42857 0 1 1 62.85714,0 z"
       transform="matrix(0.68980903,0,0,1.0048833,113.63964,1.4434053)"
       id="path3631"
       style="fill:#ffffff;fill-opacity:1;stroke:#000000;stroke-width:6.00548029;stroke-miterlimit:4;stroke-opacity:1;stroke-dasharray:none" />
    <path
       d="m 171.73642,395.21933 379.73093,0"
       id="path3633"
       style="fill:none;stroke:#000000;stroke-width:4.9610672;stroke-linecap:butt;stroke-linejoin:miter;stroke-miterlimit:4;stroke-opacity:1;stroke-dasharray:none" />
    <path
       d="m 361.01015,181.78532 c 2.85714,-17.14286 0,-88.571431 -51.42857,-85.714288 C 258.15301,98.928175 201.01015,41.785317 201.01015,41.785317"
       id="path3635"
       style="fill:none;stroke:#000000;stroke-width:15;stroke-linecap:butt;stroke-linejoin:miter;stroke-miterlimit:4;stroke-opacity:1;stroke-dasharray:none" />
  </g>
</svg>
